<svg xmlns="http://www.w3.org/2000/svg" xmlns:xlink="http://www.w3.org/1999/xlink" width="225.85" height="71.95" viewBox="0 0 225.85 71.95"><defs><clipPath id="a"><rect x="0.45" y="0.56" width="224.93" height="70.66" fill="none"/></clipPath></defs><g clip-path="url(#a)"><path d="M7.49,45.42a22.89,22.89,0,0,1-3.43-4.69,31,31,0,0,1-2.42-5.6A29.86,29.86,0,0,1,.55,27.71,28.6,28.6,0,0,1,2.2,18.15,30,30,0,0,1,5.54,11.8,28.17,28.17,0,0,1,13.6,4.42S19.71.62,26.15.77a23,23,0,0,1,11.43,3A25.39,25.39,0,0,1,45.93,11a31.44,31.44,0,0,1,2.77,4.75l8.06,21.47s1.14,3.94-1.59,4.35a46.8,46.8,0,0,1-7.32.38v17H29L16.8,49.58,33.06,23.13a12.86,12.86,0,0,0,.21-3.88s-.27-1-1-1.15c0,0-1.47-.68-2.25,1.73l-1.68,5.05s-.61,1.74-.84.4a6.28,6.28,0,0,1,.39-1.94A56.09,56.09,0,0,0,29.67,17a10,10,0,0,0,.09-3s-.27-1-.85-1c0,0-1.32-.56-2.23,1.53a13.49,13.49,0,0,0-1.34,3.73A19.36,19.36,0,0,1,24,23s-.62,1.26-.47-.11a39.83,39.83,0,0,1,.84-4.29,18.08,18.08,0,0,0,1-4.43s.23-2.69-.72-3.1a1.81,1.81,0,0,0-2.5.48s-1,1.25-1.36,5.34c0,0-.47,4.41-1.09,5.26,0,0-.56.91-.64,0a12.72,12.72,0,0,1,.49-3.3,22.46,22.46,0,0,0,.46-4.09s-.09-2-1.63-1.67c0,0-1.72.09-2.48,3.49,0,0-.78,2.78-1.4,5.71l-1.14,6.67s-.22,1.28-.57,0c0,0-1.55-5.51-2.07-6A1.73,1.73,0,0,0,7.77,23s-.71.86-.48,3.59a35.46,35.46,0,0,0,1,6.39s1,2.81,1.76,4.62c0,0-1.45,5.78-2.46,7.66l-.13.21" fill="#e62114"/><path d="M103.17,42.87,98.42,38a21.79,21.79,0,0,0,4.64-14c0-12.19-8.11-20.91-20.24-20.91S62.59,11.85,62.59,24s8.11,20.9,20.23,20.9c3.69,0,7.21-.73,9.45-2.12l5.37,5.53,5.53-5.48M81.09,31.3l3.36,3.47a5.87,5.87,0,0,1-1.63.22c-3.13,0-7.93-2.07-7.93-11s4.8-11,7.93-11,7.94,2.07,7.94,11A15.76,15.76,0,0,1,90,29.35l-3.35-3.41Z" fill="#e62114" fill-rule="evenodd"/><path d="M144.71,19c-1.07-10-7.1-15.76-18.06-15.82-12.29,0-20.23,8.33-20.23,20.91,0,11.79,7.32,20.9,20.23,20.9,11.68,0,18.22-8.55,18.22-16.6H132.8c-.73,3.75-2.35,6.65-6.48,6.65-5.76,0-7.6-5.59-7.6-11s1.84-11,7.6-11c5.08,0,6.2,4.42,6.43,5.87h12" fill="#e62114"/><polygon points="158.68 43.99 170.98 43.99 170.98 14.31 182.16 14.31 182.16 4.08 147.5 4.08 147.5 14.31 158.68 14.31 158.68 43.99" fill="#e62114"/><path d="M197.15,24c0-8.89,4.81-11,7.94-11S213,15.15,213,24s-4.8,11-7.93,11-7.94-2.07-7.94-11m-12.3,0c0,12.18,8.11,20.9,20.24,20.9s20.23-8.72,20.23-20.9-8.1-20.91-20.23-20.91S184.85,11.85,184.85,24" fill="#e62114" fill-rule="evenodd"/><path d="M64.22,52.24c0-.43.07-.94.59-.94s.57.51.57.94v2.87c0,.4,0,1-.56,1s-.6-.59-.6-1V52.24m2.8-.11A1.93,1.93,0,0,0,64.82,50a2,2,0,0,0-2.24,2.09V55c0,1.57.58,2.39,2.24,2.39l.33,0,.3,0,.92,1,1-.82-.76-.82A2.7,2.7,0,0,0,67,55Z" fill-rule="evenodd"/><path d="M71.72,57.19V52H70.24v3.73a.41.41,0,0,1-.43.44c-.28,0-.35-.2-.37-.44V52H68v4.28c0,.71.47,1.1,1.33,1.1a1.21,1.21,0,0,0,1-.81h0v.64h1.38"/><path d="M75.31,57.19h1.44a1.87,1.87,0,0,1-.12-.57v-3.2c0-1.15-.53-1.59-2-1.59-1.2,0-2.07.49-2,1.79h1.48c0-.43,0-.81.57-.81a.49.49,0,0,1,.47.54c0,.56-.64.63-1.29.84A1.65,1.65,0,0,0,72.57,56a1.3,1.3,0,0,0,1.36,1.4,1.54,1.54,0,0,0,1.27-.63l.11.46m-.16-1.71c0,.33-.1.79-.54.79a.51.51,0,0,1-.55-.56A.76.76,0,0,1,74.4,55a7.33,7.33,0,0,1,.75-.38Z" fill-rule="evenodd"/><rect x="77.71" y="50.21" width="1.48" height="6.99"/><path d="M81.93,50.21H80.45v1.25h1.48Zm0,1.77H80.45v5.21h1.48Z" fill-rule="evenodd"/><path d="M83.33,53.05v3a1.1,1.1,0,0,0,1.24,1.21,6.11,6.11,0,0,0,1-.09v-1a1.62,1.62,0,0,0-.38,0c-.2,0-.33-.07-.33-.36V53.05h.71V52h-.71V50.49H83.33V52h-.59v1.07h.59"/><path d="M87.43,52H85.94l1,4.72a4.56,4.56,0,0,1,.17.88c0,.21-.29.29-.45.26l-.29,0v1.1c.15,0,.33,0,.59,0,1.62,0,1.61-1.1,2-2.51l1-4.46H88.46L88,55.35h0L87.43,52"/><path d="M97.44,52.65v-.59c0-1.43-.83-2-2.23-2A1.93,1.93,0,0,0,93,52.26v2.87c0,1.43.59,2.23,2.1,2.23,1.67,0,2.36-.84,2.36-2v-.86H95.83v.64c0,.42,0,1-.6,1s-.59-.23-.59-.62V52c0-.45.12-.73.63-.72.31,0,.52.3.52.9v.45h1.64"/><path d="M99.85,53.5c0-.33.11-.6.45-.6s.46.27.46.6v2.33c0,.3-.15.46-.46.46s-.42-.16-.45-.46V53.5m-1.48,2.24c0,1.19.87,1.62,1.93,1.62s1.87-.44,1.94-1.62V53.62c0-1.18-.63-1.79-1.94-1.79-1.14,0-1.93.44-1.93,1.79Z" fill-rule="evenodd"/><path d="M107,57.19V52h-1.49v3.73a.4.4,0,0,1-.42.44c-.28,0-.35-.2-.37-.44V52h-1.48v4.28c0,.71.47,1.1,1.33,1.1a1.21,1.21,0,0,0,1-.81h0v.64H107"/><path d="M108.05,52v5.21h1.48V53.47a.38.38,0,0,1,.4-.43c.28,0,.37.18.39.43v3.72h1.48V52.92c0-.71-.62-1.09-1.32-1.09a1.2,1.2,0,0,0-1,.8h0V52h-1.38"/><path d="M116.65,53.91c.08-1.43-.49-2.06-2-2.08-1.14,0-1.83.44-1.83,1.79v2.12c0,1.19.77,1.62,1.83,1.62.23,0,.36,0,.5,0a1.49,1.49,0,0,0,1.4-1,6.36,6.36,0,0,0,.12-1.24h-1.44c0,.39.1,1.21-.45,1.21-.39,0-.48-.28-.48-.61V53.53c0-.33.07-.63.45-.63a.39.39,0,0,1,.4.32c0,.2,0,.4,0,.6v.09h1.4"/><path d="M119.25,50.21h-1.48v1.25h1.48Zm0,1.77h-1.48v5.21h1.48Z" fill-rule="evenodd"/><rect x="120.51" y="50.21" width="1.48" height="6.99"/><path d="M125.94,57.19h1.48V53.05h.64V52h-.64v-.53c0-.13.15-.17.32-.17h.32V50.21h-.65c-1,0-1.45.32-1.47,1.32V52h-.58v1.07h.59v4.14"/><path d="M130.29,53.5c0-.33.11-.6.46-.6s.46.27.46.6v2.33c0,.3-.15.46-.46.46s-.43-.16-.46-.46V53.5m-1.48,2.24c0,1.19.88,1.62,1.94,1.62s1.86-.44,1.94-1.62V53.62c0-1.18-.64-1.79-1.94-1.79-1.15,0-1.94.44-1.94,1.79Z" fill-rule="evenodd"/><path d="M133.62,52v5.21h1.48V54c0-.43.2-.51.62-.51a3.15,3.15,0,0,1,.44,0V51.83a1.16,1.16,0,0,0-1.14.94h0V52h-1.38"/><polygon points="139.17 51.6 140.45 51.6 140.45 57.19 142.09 57.19 142.09 51.6 143.41 51.6 143.41 50.21 139.17 50.21 139.17 51.6"/><path d="M143.47,52v5.21H145V54c0-.43.2-.51.62-.51a3.4,3.4,0,0,1,.45,0V51.83a1.16,1.16,0,0,0-1.15.94h0V52h-1.38"/><path d="M149.29,57.19h1.45a1.62,1.62,0,0,1-.12-.57v-3.2c0-1.15-.53-1.59-2-1.59-1.19,0-2.06.49-2,1.79h1.48c0-.43,0-.81.57-.81a.49.49,0,0,1,.47.54c0,.56-.65.63-1.29.84A1.65,1.65,0,0,0,146.56,56a1.3,1.3,0,0,0,1.36,1.4,1.54,1.54,0,0,0,1.27-.63l.1.46m-.15-1.71c0,.33-.11.79-.54.79a.51.51,0,0,1-.55-.56.74.74,0,0,1,.34-.67,7.33,7.33,0,0,1,.75-.38Z" fill-rule="evenodd"/><path d="M155.37,57.19v-7h-1.48v2.24h0a1.25,1.25,0,0,0-1.08-.62c-1,0-1.27,1-1.27,1.79v1.8c0,.89.22,1.9,1.3,1.94a1.34,1.34,0,0,0,1.15-.77h0v.6h1.38M153,54c0-.34,0-.92.46-.92s.43.53.43,1v1.23c0,.5-.06.9-.46.9s-.43-.53-.43-.84Z" fill-rule="evenodd"/><path d="M160.29,54.83V53.34c0-1.13-1-1.52-2-1.51s-2,.44-2,1.79v2.12c0,1.19.93,1.63,2,1.62,1.28,0,2-.63,1.94-2h-1.48c0,.43,0,.93-.52.9-.32,0-.45-.26-.45-.55v-.91h2.5m-2.5-1V53.5c0-.36.1-.7.52-.7a.51.51,0,0,1,.5.54v.51Z" fill-rule="evenodd"/><path d="M164.71,53.52c.06-1.15-.81-1.69-1.89-1.69s-1.93.48-1.93,1.61a1.43,1.43,0,0,0,.37,1,6.55,6.55,0,0,0,1.89,1.07.48.48,0,0,1,.2.4.46.46,0,0,1-.53.49c-.45,0-.55-.42-.53-.78h-1.42c-.05,1.26.77,1.76,1.94,1.76s2-.49,2-1.66-1-1.49-2-1.93c-.22-.11-.46-.25-.46-.53s.21-.44.5-.44c.47,0,.45.37.49.72h1.39"/><path d="M171.87,57.19h1.66l-.95-1.51a5.3,5.3,0,0,0,.62-2.2H172c-.06.31-.11.64-.19,1h0c-.23-.4-.5-.79-.75-1.18a1.94,1.94,0,0,0,1.18-1.72A1.53,1.53,0,0,0,170.51,50a1.64,1.64,0,0,0-1.82,1.46,2.45,2.45,0,0,0,.57,1.56,2.51,2.51,0,0,0-1.3,2.22,2,2,0,0,0,2.1,2.08,2.33,2.33,0,0,0,1.56-.57l.25.4m-1.48-6.13c.34,0,.48.16.48.49a1.05,1.05,0,0,1-.49.78,1.23,1.23,0,0,1-.39-.84.41.41,0,0,1,.4-.43M171,55.8a1.42,1.42,0,0,1-.7.3.88.88,0,0,1-.86-.9,1.41,1.41,0,0,1,.47-1.09Z" fill-rule="evenodd"/><path d="M181.19,52.13A1.94,1.94,0,0,0,179,50a2,2,0,0,0-2.24,2.09V55c0,1.57.58,2.39,2.24,2.39s2.21-.82,2.21-2.39V52.13m-1.64,3c0,.4,0,1-.57,1s-.6-.59-.6-1V52.24c0-.43.07-.94.59-.94s.58.51.58.94Z" fill-rule="evenodd"/><path d="M186,53.91c.08-1.43-.5-2.06-2-2.08-1.14,0-1.83.44-1.83,1.79v2.12c0,1.19.77,1.62,1.83,1.62.22,0,.36,0,.49,0a1.47,1.47,0,0,0,1.4-1,5.67,5.67,0,0,0,.12-1.24h-1.43c0,.39.09,1.21-.46,1.21-.38,0-.47-.28-.47-.61V53.53c0-.33.06-.63.44-.63a.37.37,0,0,1,.4.32c0,.2,0,.4.06.6v.09H186"/><path d="M190.76,53.91c.08-1.43-.5-2.06-2-2.08-1.15,0-1.84.44-1.84,1.79v2.12c0,1.19.78,1.62,1.84,1.62.22,0,.35,0,.49,0a1.47,1.47,0,0,0,1.4-1,6.36,6.36,0,0,0,.12-1.24h-1.43c0,.39.09,1.21-.46,1.21-.38,0-.47-.28-.47-.61V53.53c0-.33.06-.63.44-.63a.37.37,0,0,1,.4.32c0,.2,0,.4.06.6v.09h1.4"/><path d="M195.5,57.19V52H194v3.73a.41.41,0,0,1-.43.44c-.28,0-.34-.2-.36-.44V52h-1.48v4.28c0,.71.46,1.1,1.32,1.1a1.21,1.21,0,0,0,1-.81h0v.64h1.38"/><path d="M196.52,52v7H198V56.7h0a1.36,1.36,0,0,0,1.08.66c1.08,0,1.29-1,1.29-1.94v-1.8c0-.82-.29-1.79-1.26-1.79a1.36,1.36,0,0,0-1.21.78h0V52h-1.38m2.39,3.27c0,.33,0,.9-.45.9s-.46-.51-.46-1V54c0-.5.08-.92.48-.92s.43.55.43.85Z" fill-rule="evenodd"/><path d="M203.9,57.19h1.44a1.87,1.87,0,0,1-.12-.57v-3.2c0-1.15-.53-1.59-2-1.59-1.19,0-2.07.49-2,1.79h1.48c0-.43,0-.81.56-.81a.49.49,0,0,1,.47.54c0,.56-.64.63-1.28.84a1.65,1.65,0,0,0-1.3,1.77,1.3,1.3,0,0,0,1.36,1.4,1.56,1.56,0,0,0,1.28-.63l.1.46m-.16-1.71c0,.33-.1.79-.54.79a.52.52,0,0,1-.55-.56A.75.75,0,0,1,203,55a6.17,6.17,0,0,1,.74-.38Z" fill-rule="evenodd"/><path d="M206.44,53.05v3a1.1,1.1,0,0,0,1.24,1.21,5.88,5.88,0,0,0,.95-.09v-1a1.67,1.67,0,0,0-.38,0c-.19,0-.32-.07-.32-.36V53.05h.7V52h-.7V50.49h-1.49V52h-.58v1.07h.58"/><path d="M211,50.21h-1.48v1.25H211ZM211,52h-1.48v5.21H211Z" fill-rule="evenodd"/><path d="M213.61,53.5c0-.33.11-.6.45-.6s.46.27.46.6v2.33c0,.3-.15.46-.46.46s-.42-.16-.45-.46V53.5m-1.48,2.24c0,1.19.87,1.62,1.93,1.62s1.87-.44,1.94-1.62V53.62c0-1.18-.63-1.79-1.94-1.79-1.14,0-1.93.44-1.93,1.79Z" fill-rule="evenodd"/><path d="M217,52v5.21h1.48V53.47a.38.38,0,0,1,.4-.43c.28,0,.38.18.39.43v3.72h1.49V52.92c0-.71-.63-1.09-1.33-1.09a1.2,1.2,0,0,0-1,.8h0V52H217"/><path d="M225.3,53.52c.06-1.15-.81-1.69-1.89-1.69s-1.93.48-1.93,1.61a1.44,1.44,0,0,0,.38,1,6.29,6.29,0,0,0,1.89,1.07.5.5,0,0,1,.19.4.46.46,0,0,1-.53.49c-.44,0-.55-.42-.53-.78h-1.41c-.06,1.26.76,1.76,1.93,1.76s2-.49,2-1.66-1-1.49-2-1.93c-.23-.11-.46-.25-.46-.53s.2-.44.49-.44c.48,0,.46.37.5.72h1.38"/><path d="M16.74,42s0-6.64.6-9.37a23.88,23.88,0,0,1,1.13-3.9s1-2.6,2.48-2.27c0,0,2.43.05,2.27,3.43a53.55,53.55,0,0,1-.31,5.82s0,.26.25,0c0,0,5.13-7.82,6.43-9.35,0,0,2.85-4.29,5.22-3.75,0,0,2.73.59.54,4,0,0-2.58,3.9-3.1,4.66,0,0-.88,2.06.71.66A28.15,28.15,0,0,0,36.9,26s1.51-3.43,3.53-3a2.7,2.7,0,0,1,1.4.64,2.6,2.6,0,0,1,.33,2.76,27,27,0,0,1-3.5,5.26A26.2,26.2,0,0,0,36.42,35s-.52,1.26.52.29a43.25,43.25,0,0,0,3-3.63s2-3.44,4.63-3.79c0,0,1.87,0,1.79,1.65,0,0,.19,1.32-1.9,4L39.85,39s-.31,1.63.6.71c0,0,4-4.44,4.75-4.89,0,0,1.62-1.28,2.6,1,0,0,.57,1.34-.77,3.46,0,0-3.42,5-4.87,6.65L33.86,57.5,23.75,71.22,3.5,54.63s7.53-6.19,9.86-8.72L16.74,42" fill="#848482"/></g></svg>