<?xml version="1.0" encoding="UTF-8"?>
<svg xmlns="http://www.w3.org/2000/svg" width="328" height="123" viewBox="0 0 328 123" fill="none">
  <g clip-path="url(#clip0_1962_4490)">
    <path d="M1.85693 83.6546V80.0856H4.1445V79.224H1.85693V76.2211H4.35357V75.3595H0.873047V83.6546L1.85693 83.6546ZM5.8416 74.6951C5.41115 74.6951 5.26355 74.9287 5.26355 75.2611C5.26355 75.5808 5.41115 75.8272 5.8416 75.8272C6.27205 75.8272 6.41965 75.5808 6.41965 75.2611C6.41965 74.9287 6.27204 74.6951 5.8416 74.6951ZM5.34966 83.6546H6.30894V76.6888H5.34966V83.6546ZM7.94465 74.7565V83.6546H10.1215C11.2162 83.6546 11.9664 82.9533 11.9664 81.7715V78.3501C11.9664 77.2549 11.3514 76.5654 10.2814 76.5654C9.40819 76.5654 9.00234 77.0454 8.90395 77.2671V74.7565L7.94465 74.7565ZM8.90398 78.4116C8.90398 77.7594 9.39593 77.427 9.99859 77.427C10.6627 77.427 11.0071 77.7717 11.0071 78.4362V81.7223C11.0071 82.4237 10.6135 82.8053 9.91248 82.8053H8.90398V78.4116ZM16.0003 76.6023C15.9265 76.5899 15.8405 76.5899 15.7544 76.5899C14.8934 76.5899 14.4876 77.1319 14.4015 77.5254V76.6273H13.4791V83.6546H14.4384V78.6825C14.4384 77.9808 14.9303 77.5254 15.5084 77.5254C15.7175 77.5254 15.8651 77.5377 16.0004 77.5746L16.0003 76.6023ZM20.846 80.3807V78.4608C20.846 77.2917 20.1572 76.5039 18.7921 76.5039C17.4269 76.5039 16.7382 77.2917 16.7382 78.4608V81.8207C16.7382 82.9902 17.4269 83.7776 18.7921 83.7776C20.1572 83.7776 20.846 82.9902 20.846 81.8207V81.3653H19.899V81.833C19.899 82.4979 19.5792 82.916 18.792 82.916C18.0049 82.916 17.6852 82.4979 17.6852 81.833V80.4176H20.8214V80.3807L20.846 80.3807ZM17.6852 78.4485C17.6852 77.784 18.0049 77.3655 18.7921 77.3655C19.5792 77.3655 19.899 77.784 19.899 78.4485V79.6179H17.6852L17.6852 78.4485ZM27.0527 80.7255C27.2249 80.7378 27.4463 80.7501 27.6185 80.7501C28.9344 80.7501 29.5862 79.9622 29.5862 78.8055V77.3163C29.5862 76.1842 28.9098 75.3595 27.4463 75.3595H25.4539V83.6546H26.4255V76.2211H27.4463C28.2826 76.2211 28.6147 76.6519 28.6147 77.3163V78.8178C28.6147 79.4822 28.3072 79.8761 27.5077 79.8761C27.3602 79.8761 27.2003 79.8639 27.0527 79.8639V80.7255ZM33.3129 76.6023C33.2388 76.5899 33.1527 76.5899 33.0667 76.5899C32.2057 76.5899 31.7998 77.1319 31.7138 77.5254V76.6273H30.7913V83.6546H31.7506V78.6825C31.7506 77.9808 32.2426 77.5254 32.821 77.5254C33.0299 77.5254 33.1773 77.5377 33.3129 77.5746L33.3129 76.6023ZM38.1337 78.4607C38.1337 77.2917 37.4574 76.5039 36.0921 76.5039C34.7269 76.5039 34.0506 77.2917 34.0506 78.4607V81.8207C34.0506 82.9902 34.7269 83.7775 36.0921 83.7775C37.4574 83.7775 38.1337 82.9902 38.1337 81.8207V78.4607ZM37.1866 81.8207C37.1866 82.4856 36.8794 82.9159 36.0921 82.9159C35.3172 82.9159 35.01 82.4856 35.01 81.8207V78.4607C35.01 77.7963 35.3172 77.3655 36.0921 77.3655C36.8794 77.3655 37.1866 77.7963 37.1866 78.4607V81.8207ZM41.565 82.9159C40.79 82.9159 40.4828 82.4856 40.4828 81.8207V78.4607C40.4828 77.7963 40.79 77.3655 41.565 77.3655C42.3523 77.3655 42.6472 77.7963 42.6472 78.4607V79.0145H43.6065V78.4607C43.6065 77.2917 42.9303 76.5039 41.565 76.5039C40.1997 76.5039 39.5235 77.2917 39.5235 78.4607V81.8207C39.5235 82.9902 40.1997 83.7775 41.565 83.7775C42.9303 83.7775 43.6065 82.9902 43.6065 81.8207V81.3038H42.6472V81.8207C42.6472 82.4856 42.3523 82.9159 41.565 82.9159ZM49.0179 80.3807V78.4608C49.0179 77.2917 48.3294 76.5039 46.9641 76.5039C45.5989 76.5039 44.9103 77.2917 44.9103 78.4608V81.8207C44.9103 82.9902 45.5989 83.7776 46.9641 83.7776C48.3294 83.7776 49.0179 82.9902 49.0179 81.8207V81.3653H48.0709V81.833C48.0709 82.4979 47.751 82.916 46.9641 82.916C46.1768 82.916 45.8574 82.4979 45.8574 81.833V80.4176H48.9933V80.3807L49.0179 80.3807ZM45.8574 78.4485C45.8574 77.784 46.1768 77.3655 46.9641 77.3655C47.751 77.3655 48.0709 77.784 48.0709 78.4485V79.6179H45.8574V78.4485ZM51.8467 79.5068C51.3671 79.2978 51.1577 79.0268 51.1577 78.5099V78.3501C51.1577 77.698 51.3916 77.3409 52.1912 77.3409C52.9781 77.3409 53.1997 77.698 53.1997 78.3501V78.6825H54.1344V78.3747C54.1344 77.218 53.5437 76.5039 52.1912 76.5039C50.826 76.5039 50.223 77.2057 50.223 78.3624V78.5842C50.223 79.3839 50.6166 79.913 51.3056 80.2332L52.5353 80.7992C53.0641 81.0333 53.2489 81.3038 53.2489 81.7223V81.9437C53.2489 82.6085 52.9412 82.9282 52.1539 82.9282C51.3794 82.9282 51.1086 82.584 51.1086 81.9313V81.5871H50.1615V81.9191C50.1615 83.0762 50.8014 83.7775 52.1539 83.7775C53.5192 83.7775 54.1836 83.1008 54.1836 81.9313V81.6486C54.1836 80.8853 53.7285 80.3807 53.0272 80.061L51.8467 79.5068ZM56.7908 79.5068C56.3111 79.2978 56.1018 79.0268 56.1018 78.5099V78.3501C56.1018 77.698 56.3357 77.3409 57.1348 77.3409C57.9221 77.3409 58.1437 77.698 58.1437 78.3501V78.6825H59.078V78.3747C59.078 77.218 58.4878 76.5039 57.1348 76.5039C55.77 76.5039 55.167 77.2057 55.167 78.3624V78.5842C55.167 79.3839 55.5607 79.913 56.2497 80.2332L57.4793 80.7992C58.0081 81.0333 58.1929 81.3038 58.1929 81.7223V81.9437C58.1929 82.6085 57.8853 82.9282 57.0979 82.9282C56.3234 82.9282 56.0526 82.584 56.0526 81.9313V81.5871H55.1056V81.9191C55.1056 83.0762 55.7454 83.7775 57.0979 83.7775C58.4632 83.7775 59.1276 83.1008 59.1276 81.9313V81.6486C59.1276 80.8853 58.6725 80.3807 57.9713 80.061L56.7908 79.5068ZM60.8984 74.6951C60.4679 74.6951 60.3204 74.9287 60.3204 75.2611C60.3204 75.5808 60.4679 75.8272 60.8984 75.8272C61.3289 75.8272 61.4763 75.5808 61.4763 75.2611C61.4763 74.9287 61.3289 74.6951 60.8984 74.6951ZM60.4064 83.6546H61.3657V76.6888H60.4064V83.6546ZM63.9606 83.6546V78.4362C63.9606 77.784 64.4894 77.427 65.0678 77.427C65.7318 77.427 66.064 77.7963 66.064 78.4608V83.6546H67.0233V78.3378C67.0233 77.2672 66.4204 76.59 65.375 76.59C64.4649 76.59 64.0343 77.1073 63.9238 77.3532V76.6273H63.0013V83.6546L63.9606 83.6546ZM68.2407 85.1192C68.6093 85.3282 69.2737 85.5131 70.1962 85.5131H70.6882C72.3237 85.5131 72.9631 84.8974 72.9631 83.9128V83.7407C72.9631 82.793 72.4589 82.2884 71.2538 82.2884H70.5403C69.9623 82.2884 69.7657 82.1286 69.7657 81.7592C69.7657 81.3407 69.9869 81.144 70.4297 81.144C71.8318 81.144 72.4835 80.4299 72.4835 79.3347V78.3132C72.4835 77.8455 72.3606 77.4393 72.1148 77.1442C72.25 77.0454 72.422 76.9962 72.6436 76.9962H73.0619V76.0731H72.8648C72.3237 76.0731 71.9055 76.3194 71.7458 76.8241C71.4136 76.615 70.9708 76.5039 70.3928 76.5039C68.9538 76.5039 68.3021 77.218 68.3021 78.3132V79.3347C68.3021 80.184 68.6958 80.8115 69.5441 81.0456C69.1755 81.1317 68.8924 81.4145 68.8924 81.8576V82.0548C68.8924 82.7561 69.4458 83.1131 70.442 83.1131H71.1801C71.9178 83.1131 72.0284 83.3959 72.0284 83.7899V83.9005C72.0284 84.3805 71.6843 84.676 70.6144 84.676H70.1839C69.3229 84.676 68.7204 84.4793 68.2407 84.1961L68.2407 85.1192ZM71.5364 79.3347C71.5364 79.9868 71.2047 80.3316 70.3928 80.3316C69.5809 80.3316 69.2492 79.9868 69.2492 79.3347V78.3132C69.2492 77.6611 69.5809 77.3164 70.3928 77.3164C71.2047 77.3164 71.5364 77.6611 71.5364 78.3132V79.3347ZM81.8141 79.0391H81.2484V78.4977H80.3014V79.0391H78.9361C78.1616 79.0391 77.9031 78.5965 77.9031 77.9316V77.1934C77.9031 76.5162 78.2844 76.0854 79.0963 76.0854C79.9077 76.0854 80.2645 76.5162 80.2645 77.1811V77.4639H81.1993V77.1934C81.1993 76.0731 80.5225 75.2365 79.0963 75.2365C77.6696 75.2365 76.956 76.0731 76.956 77.2057V77.8947C76.956 78.6579 77.2391 79.2363 77.8785 79.4576C77.2391 79.6917 76.9438 80.2455 76.9438 81.021V81.8084C76.9438 82.9405 77.6819 83.7775 79.1086 83.7775C80.5353 83.7775 81.2484 82.9405 81.2484 81.8084V79.8638H81.8141V79.0391ZM79.1086 82.9405C78.2967 82.9405 77.8908 82.4979 77.8908 81.8207V80.9837C77.8908 80.3315 78.1739 79.8639 78.9607 79.8639H80.3014V81.8207C80.3014 82.4979 79.92 82.9405 79.1086 82.9405ZM88.3773 81.4514H89.3985L90.1485 79.1625C90.5667 77.9316 90.8248 77.07 90.8248 77.07C90.8248 77.07 90.8002 77.9439 90.8002 79.1748V83.6546H91.7226V75.3595H90.6036L89.4845 78.6948C89.1155 79.7655 88.8816 80.5902 88.8816 80.5902C88.8816 80.5902 88.6235 79.704 88.2913 78.7071L87.1723 75.3595H86.0409V83.6546H86.9634V79.1748C86.9634 77.8701 86.9261 77.0577 86.9261 77.0577C86.9261 77.0577 87.1723 77.8578 87.6273 79.1748L88.3773 81.4514ZM96.2981 82.916V83.6546H97.2324V78.3747C97.2324 77.218 96.5684 76.5039 95.1908 76.5039C93.8133 76.5039 93.1616 77.218 93.1616 78.3747V78.7809H94.1209V78.3747C94.1209 77.7103 94.404 77.3655 95.1908 77.3655C95.9904 77.3655 96.2858 77.7103 96.2858 78.3747V79.433L94.5392 79.9868C93.543 80.3193 93.0879 80.8484 93.0879 81.6855V82.0425C93.0879 83.1008 93.6782 83.7284 94.8714 83.7284C95.7074 83.7284 96.1502 83.3222 96.2981 82.916ZM94.0349 81.9933V81.6978C94.0349 81.2055 94.2561 80.9099 94.9205 80.7009L96.2858 80.2824V81.8453C96.2858 82.436 95.9658 82.9282 95.0557 82.9282C94.3303 82.9282 94.0349 82.5717 94.0349 81.9933ZM99.754 83.6546V78.4362C99.754 77.784 100.283 77.427 100.861 77.427C101.525 77.427 101.857 77.7963 101.857 78.4608V83.6546H102.816V78.3378C102.816 77.2672 102.214 76.59 101.168 76.59C100.258 76.59 99.8277 77.1073 99.7166 77.3532V76.6273H98.7947V83.6546L99.754 83.6546ZM107.391 76.6273V81.8453C107.391 82.4979 106.862 82.8545 106.297 82.8545C105.632 82.8545 105.288 82.4856 105.288 81.8207V76.6273H104.329V81.9191C104.329 82.9902 104.907 83.7038 105.977 83.7038C106.936 83.7038 107.342 83.1746 107.428 82.9282V83.6546H108.351V76.6273L107.391 76.6273ZM109.494 77.4639H110.22V83.6546H111.179V77.4639H112.397V76.6273H111.179V76.2703C111.179 75.6177 111.437 75.3349 112.015 75.3349C112.175 75.3349 112.36 75.3595 112.495 75.3964V74.5839C112.323 74.5471 112.101 74.5225 111.929 74.5225C110.761 74.5225 110.22 75.175 110.22 76.2826V76.6273H109.494V77.4639ZM116.086 82.916V83.6546H117.021V78.3747C117.021 77.218 116.357 76.5039 114.979 76.5039C113.602 76.5039 112.95 77.218 112.95 78.3747V78.7809H113.909V78.3747C113.909 77.7103 114.192 77.3655 114.979 77.3655C115.779 77.3655 116.074 77.7103 116.074 78.3747V79.433L114.328 79.9868C113.331 80.3193 112.876 80.8484 112.876 81.6855V82.0425C112.876 83.1008 113.467 83.7284 114.659 83.7284C115.496 83.7284 115.939 83.3222 116.086 82.916ZM113.823 81.9933V81.6978C113.823 81.2055 114.045 80.9099 114.709 80.7009L116.074 80.2824V81.8453C116.074 82.436 115.754 82.9282 114.844 82.9282C114.118 82.9282 113.823 82.5717 113.823 81.9933ZM120.501 82.916C119.727 82.916 119.419 82.4856 119.419 81.8207V78.4608C119.419 77.7963 119.727 77.3655 120.501 77.3655C121.289 77.3655 121.583 77.7963 121.583 78.4608V79.0145H122.543V78.4608C122.543 77.2917 121.867 76.5039 120.501 76.5039C119.136 76.5039 118.46 77.2917 118.46 78.4608V81.8207C118.46 82.9902 119.136 83.7776 120.501 83.7776C121.867 83.7776 122.543 82.9902 122.543 81.8207V81.3038H121.583V81.8207C121.583 82.4856 121.289 82.916 120.501 82.916ZM123.268 77.4639H124.019V81.981C124.019 83.0517 124.535 83.7038 125.642 83.7038C126.072 83.7038 126.442 83.5931 126.528 83.5562V82.6577C126.429 82.7069 126.122 82.8299 125.765 82.8299C125.224 82.8299 124.978 82.5717 124.978 81.956V77.4639H126.405V76.6273H124.978V75.2611H124.302L124.056 76.6273H123.268L123.268 77.4639ZM130.463 76.6273V81.8453C130.463 82.4979 129.934 82.8545 129.369 82.8545C128.704 82.8545 128.36 82.4856 128.36 81.8207V76.6273H127.401V81.9191C127.401 82.9902 127.979 83.7038 129.049 83.7038C130.008 83.7038 130.414 83.1746 130.5 82.9282V83.6546H131.422V76.6273L130.463 76.6273ZM135.579 76.6023C135.505 76.59 135.419 76.59 135.333 76.59C134.472 76.59 134.066 77.1319 133.98 77.5254V76.6273H133.058V83.6546H134.017V78.6825C134.017 77.9808 134.509 77.5254 135.087 77.5254C135.297 77.5254 135.444 77.5377 135.579 77.5746V76.6023ZM136.932 74.6951C136.502 74.6951 136.354 74.9287 136.354 75.2611C136.354 75.5808 136.502 75.8272 136.932 75.8272C137.363 75.8272 137.51 75.5808 137.51 75.2611C137.51 74.9287 137.363 74.6951 136.932 74.6951ZM136.44 83.6546H137.399V76.6888H136.44V83.6546ZM139.994 83.6546V78.4362C139.994 77.784 140.523 77.427 141.101 77.427C141.766 77.427 142.097 77.7963 142.097 78.4608V83.6546H143.057V78.3378C143.057 77.2672 142.454 76.59 141.409 76.59C140.499 76.59 140.068 77.1073 139.958 77.3532V76.6273H139.035V83.6546L139.994 83.6546ZM144.274 85.1192C144.643 85.3282 145.308 85.5131 146.23 85.5131H146.722C148.357 85.5131 148.997 84.8974 148.997 83.9128V83.7407C148.997 82.793 148.493 82.2884 147.288 82.2884H146.574C145.996 82.2884 145.799 82.1286 145.799 81.7592C145.799 81.3407 146.021 81.144 146.463 81.144C147.866 81.144 148.517 80.4299 148.517 79.3347V78.3132C148.517 77.8455 148.394 77.4393 148.148 77.1442C148.284 77.0454 148.456 76.9962 148.677 76.9962H149.095V76.0731H148.899C148.357 76.0731 147.939 76.3194 147.78 76.8241C147.447 76.615 147.005 76.5039 146.427 76.5039C144.988 76.5039 144.336 77.218 144.336 78.3132V79.3347C144.336 80.184 144.729 80.8115 145.578 81.0456C145.209 81.1317 144.926 81.4145 144.926 81.8576V82.0548C144.926 82.7561 145.48 83.1131 146.476 83.1131H147.213C147.952 83.1131 148.062 83.3959 148.062 83.7899V83.9005C148.062 84.3805 147.718 84.676 146.648 84.676H146.217C145.357 84.676 144.754 84.4793 144.274 84.1961L144.274 85.1192ZM147.57 79.3347C147.57 79.9868 147.238 80.3316 146.427 80.3316C145.615 80.3316 145.283 79.9868 145.283 79.3347V78.3132C145.283 77.6611 145.615 77.3164 146.427 77.3164C147.238 77.3164 147.57 77.6611 147.57 78.3132V79.3347ZM155.228 80.3193C155.782 80.6886 156.027 80.9837 156.04 81.624V81.7838C156.04 82.461 155.683 82.9036 154.847 82.9036C153.998 82.9036 153.666 82.461 153.666 81.7838V81.2423H152.694V81.8084C152.694 82.9405 153.383 83.7775 154.847 83.7775C156.286 83.7775 156.999 82.9533 157.011 81.833V81.4514C157.011 80.6271 156.544 80.0733 155.855 79.6179L154.564 78.7686C154.023 78.4239 153.716 78.0796 153.716 77.4393V77.2303C153.716 76.5531 154.011 76.11 154.847 76.11C155.696 76.11 155.978 76.5654 155.978 77.2303V77.7103H156.962V77.2057C156.962 76.0731 156.311 75.2365 154.847 75.2365C153.396 75.2365 152.756 76.0731 152.756 77.2057V77.5377C152.756 78.3993 153.273 79.0391 153.937 79.4822L155.228 80.3193ZM162.263 80.3807V78.4608C162.263 77.2917 161.574 76.5039 160.209 76.5039C158.844 76.5039 158.155 77.2917 158.155 78.4608V81.8207C158.155 82.9902 158.844 83.7776 160.209 83.7776C161.574 83.7776 162.263 82.9902 162.263 81.8207V81.3653H161.316V81.833C161.316 82.4979 160.996 82.916 160.209 82.916C159.422 82.916 159.102 82.4979 159.102 81.833V80.4176H162.239V80.3807L162.263 80.3807ZM159.102 78.4485C159.102 77.784 159.422 77.3655 160.209 77.3655C160.996 77.3655 161.316 77.784 161.316 78.4485V79.618H159.102V78.4485ZM165.682 82.916C164.907 82.916 164.6 82.4856 164.6 81.8207V78.4608C164.6 77.7963 164.907 77.3655 165.682 77.3655C166.469 77.3655 166.764 77.7963 166.764 78.4608V79.0145H167.724V78.4608C167.724 77.2917 167.047 76.5039 165.682 76.5039C164.317 76.5039 163.641 77.2917 163.641 78.4608V81.8207C163.641 82.9902 164.317 83.7776 165.682 83.7776C167.047 83.7776 167.724 82.9902 167.724 81.8207V81.3038H166.764V81.8207C166.764 82.4856 166.469 82.916 165.682 82.916ZM168.449 77.4639H169.199V81.981C169.199 83.0517 169.716 83.7038 170.823 83.7038C171.253 83.7038 171.622 83.5931 171.708 83.5562V82.6577C171.61 82.7069 171.302 82.8299 170.946 82.8299C170.405 82.8299 170.159 82.5717 170.159 81.956V77.4639H171.585V76.6273H170.159V75.2611H169.482L169.236 76.6273H168.449V77.4639ZM176.603 78.4608C176.603 77.2917 175.927 76.5039 174.562 76.5039C173.196 76.5039 172.52 77.2917 172.52 78.4608V81.8207C172.52 82.9902 173.196 83.7776 174.562 83.7776C175.927 83.7776 176.603 82.9902 176.603 81.8207V78.4608ZM175.656 81.8207C175.656 82.4856 175.349 82.916 174.562 82.916C173.787 82.916 173.479 82.4856 173.479 81.8207V78.4608C173.479 77.7963 173.787 77.3655 174.562 77.3655C175.349 77.3655 175.656 77.7963 175.656 78.4608V81.8207ZM180.637 76.6023C180.563 76.59 180.477 76.59 180.391 76.59C179.53 76.59 179.124 77.1319 179.038 77.5254V76.6273H178.116V83.6546H179.075V78.6825C179.075 77.9808 179.567 77.5254 180.145 77.5254C180.354 77.5254 180.502 77.5377 180.637 77.5746V76.6023ZM188.27 82.8053H185.577V79.9007H187.914V79.0391H185.577V76.2211H188.27V75.3595H184.605V83.6546H188.27V82.8053ZM189.303 81.8945C189.303 83.0025 189.918 83.7038 191.001 83.7038C191.886 83.7038 192.28 83.2115 192.378 83.0025V83.6546H193.325V74.7565H192.366V77.3164C192.28 77.1442 191.911 76.6765 191.038 76.6765C189.992 76.6765 189.303 77.341 189.303 78.4977L189.303 81.8945ZM192.366 81.8576C192.366 82.5102 191.874 82.8422 191.283 82.8422C190.619 82.8422 190.263 82.4979 190.263 81.8207V78.5345C190.263 77.8578 190.619 77.5131 191.283 77.5131C191.874 77.5131 192.366 77.8578 192.366 78.5099V81.8576ZM197.962 76.6273V81.8453C197.962 82.4979 197.433 82.8545 196.867 82.8545C196.203 82.8545 195.859 82.4856 195.859 81.8207V76.6273H194.899V81.9191C194.899 82.9902 195.477 83.7038 196.547 83.7038C197.507 83.7038 197.913 83.1746 197.999 82.9282V83.6546H198.921V76.6273L197.962 76.6273ZM202.475 82.9159C201.7 82.9159 201.393 82.4856 201.393 81.8207V78.4607C201.393 77.7963 201.7 77.3655 202.475 77.3655C203.262 77.3655 203.557 77.7963 203.557 78.4607V79.0145H204.517V78.4607C204.517 77.2917 203.841 76.5039 202.475 76.5039C201.11 76.5039 200.434 77.2917 200.434 78.4607V81.8207C200.434 82.9902 201.11 83.7775 202.475 83.7775C203.841 83.7775 204.517 82.9902 204.517 81.8207V81.3038H203.557V81.8207C203.557 82.4856 203.262 82.9159 202.475 82.9159ZM208.821 82.9159V83.6546H209.756V78.3747C209.756 77.218 209.092 76.5039 207.714 76.5039C206.337 76.5039 205.685 77.218 205.685 78.3747V78.7809H206.644V78.3747C206.644 77.7103 206.927 77.3655 207.714 77.3655C208.514 77.3655 208.809 77.7103 208.809 78.3747V79.433L207.063 79.9868C206.066 80.3193 205.611 80.8484 205.611 81.6854V82.0425C205.611 83.1008 206.202 83.7284 207.394 83.7284C208.231 83.7284 208.674 83.3222 208.821 82.9159ZM206.558 81.9933V81.6977C206.558 81.2055 206.779 80.9099 207.444 80.7009L208.809 80.2824V81.8453C208.809 82.4359 208.489 82.9282 207.579 82.9282C206.853 82.9282 206.558 82.5717 206.558 81.9933ZM210.617 77.4639H211.367V81.981C211.367 83.0517 211.884 83.7038 212.99 83.7038C213.421 83.7038 213.79 83.5931 213.876 83.5562V82.6577C213.777 82.7069 213.47 82.8299 213.113 82.8299C212.572 82.8299 212.326 82.5717 212.326 81.956V77.4639H213.753V76.6273H212.326V75.2611H211.65L211.404 76.6273H210.617V77.4639ZM215.303 74.6951C214.872 74.6951 214.724 74.9287 214.724 75.2611C214.724 75.5808 214.872 75.8272 215.303 75.8272C215.733 75.8272 215.881 75.5808 215.881 75.2611C215.881 74.9287 215.733 74.6951 215.303 74.6951ZM214.81 83.6546H215.77V76.6888H214.81V83.6546ZM221.366 78.4607C221.366 77.2917 220.69 76.5039 219.324 76.5039C217.959 76.5039 217.283 77.2917 217.283 78.4607V81.8207C217.283 82.9902 217.959 83.7775 219.324 83.7775C220.69 83.7775 221.366 82.9902 221.366 81.8207V78.4607ZM220.419 81.8207C220.419 82.4856 220.111 82.9159 219.324 82.9159C218.549 82.9159 218.242 82.4856 218.242 81.8207V78.4607C218.242 77.7963 218.549 77.3655 219.324 77.3655C220.111 77.3655 220.419 77.7963 220.419 78.4607V81.8207ZM223.838 83.6546V78.4362C223.838 77.784 224.367 77.427 224.945 77.427C225.609 77.427 225.941 77.7963 225.941 78.4608V83.6546H226.9V78.3378C226.9 77.2671 226.298 76.59 225.252 76.59C224.342 76.59 223.912 77.1073 223.801 77.3532V76.6273H222.879V83.6546L223.838 83.6546ZM234.398 82.9159V83.6546H235.333V78.3747C235.333 77.218 234.669 76.5039 233.291 76.5039C231.914 76.5039 231.262 77.218 231.262 78.3747V78.7809H232.221V78.3747C232.221 77.7103 232.504 77.3655 233.291 77.3655C234.09 77.3655 234.386 77.7103 234.386 78.3747V79.433L232.639 79.9868C231.643 80.3193 231.188 80.8484 231.188 81.6854V82.0425C231.188 83.1008 231.779 83.7284 232.971 83.7284C233.808 83.7284 234.251 83.3222 234.398 82.9159ZM232.135 81.9933V81.6977C232.135 81.2055 232.357 80.9099 233.021 80.7009L234.386 80.2824V81.8453C234.386 82.4359 234.066 82.9282 233.156 82.9282C232.43 82.9282 232.135 82.5717 232.135 81.9933ZM237.854 83.6546V78.4362C237.854 77.784 238.383 77.427 238.961 77.427C239.625 77.427 239.957 77.7963 239.957 78.4608V83.6546H240.916V78.3378C240.916 77.2671 240.314 76.59 239.268 76.59C238.358 76.59 237.928 77.1073 237.817 77.3532V76.6273H236.895V83.6546L237.854 83.6546ZM242.368 81.8945C242.368 83.0025 242.982 83.7038 244.065 83.7038C244.95 83.7038 245.344 83.2115 245.442 83.0025V83.6546H246.389V74.7565H245.43V77.3163C245.344 77.1442 244.975 76.6765 244.101 76.6765C243.056 76.6765 242.368 77.3409 242.368 78.4977L242.368 81.8945ZM245.43 81.8576C245.43 82.5102 244.938 82.8421 244.348 82.8421C243.684 82.8421 243.327 82.4979 243.327 81.8207V78.5345C243.327 77.8578 243.684 77.5131 244.348 77.5131C244.938 77.5131 245.43 77.8578 245.43 78.5099V81.8576ZM251.87 83.6546H252.854V76.2211H254.404V75.3595H250.321V76.2211H251.87V83.6546ZM257.798 76.6023C257.724 76.5899 257.638 76.5899 257.552 76.5899C256.691 76.5899 256.285 77.1319 256.199 77.5254V76.6273H255.277V83.6546H256.236V78.6825C256.236 77.9808 256.728 77.5254 257.306 77.5254C257.515 77.5254 257.663 77.5377 257.798 77.5746V76.6023ZM261.537 82.9159V83.6546H262.472V78.3747C262.472 77.218 261.807 76.5039 260.43 76.5039C259.053 76.5039 258.401 77.218 258.401 78.3747V78.7809H259.36V78.3747C259.36 77.7103 259.643 77.3655 260.43 77.3655C261.229 77.3655 261.525 77.7103 261.525 78.3747V79.433L259.778 79.9868C258.782 80.3193 258.327 80.8484 258.327 81.6854V82.0425C258.327 83.1008 258.917 83.7284 260.11 83.7284C260.947 83.7284 261.39 83.3222 261.537 82.9159ZM259.274 81.9933V81.6977C259.274 81.2055 259.496 80.9099 260.16 80.7009L261.525 80.2824V81.8453C261.525 82.4359 261.205 82.9282 260.295 82.9282C259.569 82.9282 259.274 82.5717 259.274 81.9933ZM264.526 74.6951C264.095 74.6951 263.948 74.9287 263.948 75.2611C263.948 75.5808 264.095 75.8272 264.526 75.8272C264.956 75.8272 265.104 75.5808 265.104 75.2611C265.104 74.9287 264.956 74.6951 264.526 74.6951ZM264.034 83.6546H264.993V76.6888H264.034V83.6546ZM267.588 83.6546V78.4362C267.588 77.784 268.117 77.427 268.695 77.427C269.359 77.427 269.691 77.7963 269.691 78.4608V83.6546H270.65V78.3378C270.65 77.2672 270.048 76.59 269.002 76.59C268.092 76.59 267.662 77.1073 267.551 77.3532V76.6273H266.629V83.6546L267.588 83.6546ZM272.716 74.6951C272.286 74.6951 272.138 74.9287 272.138 75.2611C272.138 75.5808 272.286 75.8272 272.716 75.8272C273.147 75.8272 273.294 75.5808 273.294 75.2611C273.294 74.9287 273.147 74.6951 272.716 74.6951ZM272.224 83.6546H273.184V76.6888H272.224V83.6546ZM275.779 83.6546V78.4362C275.779 77.784 276.308 77.427 276.886 77.427C277.55 77.427 277.882 77.7963 277.882 78.4608V83.6546H278.841V78.3378C278.841 77.2672 278.239 76.59 277.193 76.59C276.283 76.59 275.853 77.1073 275.742 77.3532V76.6273H274.82V83.6546L275.779 83.6546ZM280.059 85.1192C280.428 85.3282 281.092 85.5131 282.014 85.5131H282.506C284.142 85.5131 284.781 84.8974 284.781 83.9128V83.7407C284.781 82.793 284.277 82.2884 283.072 82.2884H282.359C281.78 82.2884 281.584 82.1286 281.584 81.7592C281.584 81.3407 281.805 81.144 282.248 81.144C283.65 81.144 284.302 80.4299 284.302 79.3347V78.3132C284.302 77.8455 284.179 77.4393 283.933 77.1442C284.068 77.0454 284.24 76.9962 284.462 76.9962H284.88V76.0731H284.683C284.142 76.0731 283.723 76.3194 283.564 76.8241C283.231 76.615 282.789 76.5039 282.211 76.5039C280.772 76.5039 280.12 77.218 280.12 78.3132V79.3347C280.12 80.184 280.514 80.8115 281.362 81.0456C280.993 81.1317 280.71 81.4145 280.71 81.8576V82.0548C280.71 82.7561 281.264 83.1131 282.26 83.1131H282.998C283.736 83.1131 283.847 83.3959 283.847 83.7899V83.9005C283.847 84.3805 283.502 84.676 282.432 84.676H282.002C281.141 84.676 280.538 84.4793 280.059 84.1961V85.1192ZM283.355 79.3347C283.355 79.9868 283.023 80.3316 282.211 80.3316C281.399 80.3316 281.067 79.9868 281.067 79.3347V78.3132C281.067 77.6611 281.399 77.3164 282.211 77.3164C283.023 77.3164 283.355 77.6611 283.355 78.3132V79.3347ZM290.102 75.3595L288.221 83.6546H289.204L289.709 81.3776H291.812L292.316 83.6546H293.288L291.418 75.3595H290.102ZM290.176 79.2609C290.631 77.1811 290.729 76.5039 290.754 76.2211C290.779 76.5039 290.877 77.1688 291.332 79.2609L291.615 80.541H289.893L290.176 79.2609ZM297.31 76.6273V81.8453C297.31 82.4979 296.781 82.8545 296.215 82.8545C295.551 82.8545 295.207 82.4856 295.207 81.8207V76.6273H294.247V81.9191C294.247 82.9902 294.825 83.7038 295.895 83.7038C296.854 83.7038 297.26 83.1746 297.346 82.9282V83.6546H298.269V76.6273L297.31 76.6273ZM299.203 77.4639H299.954V81.981C299.954 83.0517 300.47 83.7038 301.577 83.7038C302.007 83.7038 302.376 83.5932 302.462 83.5563V82.6577C302.364 82.7069 302.057 82.8299 301.7 82.8299C301.159 82.8299 300.913 82.5717 300.913 81.956V77.4639H302.34V76.6273H300.913V75.2611H300.237L299.99 76.6273H299.203V77.4639ZM304.357 83.6546V78.4608C304.357 77.8086 304.885 77.4639 305.463 77.4639C306.128 77.4639 306.459 77.8209 306.459 78.4977V83.6546H307.419V78.3624C307.419 77.2918 306.816 76.6151 305.771 76.6151C304.861 76.6151 304.455 77.1319 304.357 77.3778V74.7565H303.397V83.6546H304.357ZM312.953 78.4608C312.953 77.2917 312.277 76.5039 310.912 76.5039C309.546 76.5039 308.87 77.2917 308.87 78.4608V81.8207C308.87 82.9902 309.546 83.7776 310.912 83.7776C312.277 83.7776 312.953 82.9902 312.953 81.8207V78.4608ZM312.006 81.8207C312.006 82.4856 311.699 82.916 310.912 82.916C310.137 82.916 309.829 82.4856 309.829 81.8207V78.4608C309.829 77.7964 310.137 77.3655 310.912 77.3655C311.699 77.3655 312.006 77.7964 312.006 78.4608V81.8207ZM316.987 76.6023C316.913 76.59 316.827 76.59 316.741 76.59C315.88 76.59 315.474 77.1319 315.388 77.5254V76.6273H314.466V83.6546H315.425V78.6826C315.425 77.9808 315.917 77.5254 316.495 77.5254C316.704 77.5254 316.852 77.5377 316.987 77.5746V76.6023ZM318.34 74.6951C317.909 74.6951 317.762 74.9287 317.762 75.2611C317.762 75.5808 317.909 75.8272 318.34 75.8272C318.77 75.8272 318.918 75.5808 318.918 75.2611C318.918 74.9287 318.77 74.6951 318.34 74.6951ZM317.848 83.6546H318.807V76.6888H317.848V83.6546ZM319.742 77.4639H320.492V81.981C320.492 83.0517 321.009 83.7038 322.116 83.7038C322.546 83.7038 322.915 83.5932 323.001 83.5563V82.6577C322.903 82.7069 322.595 82.8299 322.239 82.8299C321.698 82.8299 321.451 82.5717 321.451 81.956V77.4639H322.878V76.6273H321.451V75.2611H320.775L320.529 76.6273H319.742V77.4639ZM324.932 82.9405C324.969 83.0886 325.006 83.273 325.006 83.4328C325.006 84.11 324.6 84.6761 323.911 84.6761H323.505V85.5254H323.936C325.018 85.5254 325.695 84.8851 325.965 83.7899L327.711 76.6273H326.764L326.076 79.5934C325.707 81.2178 325.547 82.1409 325.547 82.1409C325.547 82.1409 325.399 81.2055 325.006 79.5934L324.28 76.6273H323.321L324.932 82.9405Z" fill="#231F20"></path>
    <path d="M89.687 29.7177L99.2511 29.8948C99.4572 29.8985 99.6206 30.0688 99.617 30.2756L99.5469 34.0991C99.5264 35.1775 99.1132 36.0678 98.3077 36.7691C97.6219 37.367 96.7044 37.6334 95.7952 37.6166L89.2037 37.4946C88.7004 37.485 88.2581 37.658 87.873 38.0128C87.4899 38.368 87.2924 38.7966 87.2837 39.2998C87.2773 39.6463 87.3574 39.9615 87.5254 40.2483C87.6933 40.5344 87.9172 40.767 88.1966 40.9442C88.4774 41.1232 88.7891 41.2156 89.135 41.222L112.898 41.6615C113.104 41.6651 113.269 41.8354 113.264 42.0422L113.216 44.6562C113.187 46.2136 112.507 47.7488 111.22 48.625C110.463 49.1387 109.607 49.3869 108.649 49.3691L108.272 49.3623L108.066 60.4986C108.062 60.7049 107.891 60.8689 107.685 60.8652L89.1314 60.5228C86.4145 60.4722 83.7568 59.4357 81.8955 57.4538C80.1116 55.5539 79.2451 53.2924 79.2929 50.6666C79.3302 48.646 79.9569 46.8098 81.1728 45.1576C81.2661 45.031 81.2689 44.8611 81.1792 44.7318C80.0265 43.0646 79.469 41.2061 79.5063 39.1559C79.5546 36.5656 80.5002 34.3559 82.3461 32.5253C84.2774 30.6112 86.9697 29.6676 89.687 29.7177ZM100.432 52.5715L100.488 49.5923C100.491 49.3855 100.326 49.2147 100.12 49.2116L88.9921 49.0057C88.4888 48.9962 88.0446 49.177 87.6605 49.5467C87.2755 49.917 87.0803 50.3551 87.0703 50.8578C87.0666 51.0778 87.1167 51.3073 87.2232 51.5446C87.3274 51.7823 87.458 51.9891 87.6118 52.1653C87.7661 52.3411 87.96 52.4777 88.1939 52.577C88.4287 52.6758 88.6704 52.7272 88.9225 52.7318L100.051 52.9381C100.257 52.9417 100.428 52.7778 100.432 52.5715Z" fill="#8FA15D"></path>
    <path d="M204.127 48.1874H187.786C185.179 48.1874 182.946 47.257 181.087 45.3958C179.227 43.5346 178.297 41.3004 178.297 38.6918C178.297 36.0838 179.227 33.8491 181.087 31.9879C182.946 30.1267 185.179 29.1963 187.786 29.1963H213.794C215.232 29.1963 216.278 30.6417 215.745 31.9779C215.405 32.8317 214.893 33.6046 214.209 34.2954C212.847 35.6734 211.185 36.362 209.223 36.362H187.786C187.054 36.362 186.49 36.6034 186.095 37.087C185.699 37.5706 185.501 38.1057 185.501 38.6918C185.501 39.2784 185.699 39.8062 186.095 40.2744C186.49 40.7434 187.054 40.9775 187.786 40.9775H206.763C208.052 40.9775 209.281 41.2343 210.453 41.7471C211.625 42.2599 212.634 42.9416 213.484 43.791C214.333 44.6416 215.007 45.6454 215.505 46.8025C216.003 47.9602 216.251 49.1838 216.251 50.473C216.251 53.0816 215.322 55.3158 213.463 57.1765C211.602 59.0382 209.369 59.9681 206.763 59.9681H180.781C179.293 59.9681 178.29 58.4466 178.869 57.0745C178.978 56.8182 179.102 56.5663 179.241 56.3195C179.871 55.206 180.727 54.3344 181.811 53.7037C182.895 53.0743 184.066 52.7587 185.326 52.7587H206.763C207.495 52.7587 208.059 52.5246 208.454 52.0556C208.85 51.587 209.047 51.0596 209.047 50.4731C209.047 49.887 208.85 49.3596 208.454 48.8901C208.059 48.4219 207.495 48.1874 206.763 48.1874L204.127 48.1874Z" fill="#8FA15D"></path>
    <path d="M219.635 36.363V36.2309C219.635 34.2964 220.323 32.6415 221.7 31.2639C223.076 29.8863 224.73 29.1973 226.663 29.1973H253.504V29.3293C253.504 31.2639 252.815 32.9197 251.439 34.2964C250.062 35.6744 248.393 36.363 246.432 36.363L219.635 36.363ZM228.069 48.1883C227.718 48.1883 227.417 48.3058 227.168 48.5399C226.919 48.7744 226.795 49.0673 226.795 49.4188V52.5037C226.795 52.6449 226.909 52.7596 227.051 52.7596H253.241C253.385 52.7596 253.504 52.8808 253.5 53.0247C253.45 54.6828 252.924 56.1232 251.922 57.3455C250.516 59.061 248.351 59.9691 246.133 59.9691H219.891C219.749 59.9691 219.635 59.8548 219.635 59.7136V48.0563C219.635 46.093 220.323 44.4226 221.7 43.0446C223.076 41.6675 224.73 40.9784 226.663 40.9784H253.241C253.385 40.9784 253.504 41.0996 253.5 41.2439C253.45 42.9016 252.924 44.3425 251.922 45.5643C250.516 47.2798 248.351 48.1883 246.133 48.1883L228.069 48.1883Z" fill="#8FA15D"></path>
    <path d="M288.467 29.1963C289.423 29.1963 290.151 30.0902 289.921 31.0188C289.837 31.3635 289.726 31.7015 289.591 32.0321C289.224 32.926 288.726 33.6879 288.098 34.3177C287.467 34.9485 286.72 35.4462 285.857 35.8119C284.992 36.1789 284.077 36.362 283.111 36.362H277.747C276.925 36.362 276.258 37.0292 276.258 37.8525V58.3014C276.258 59.2541 275.372 59.9841 274.447 59.7587C273.22 59.4599 272.132 58.841 271.184 57.902C269.793 56.5253 269.098 54.869 269.098 52.9345V37.8525C269.098 37.0292 268.431 36.362 267.608 36.362H256.89C255.933 36.362 255.202 35.4653 255.437 34.5363C255.521 34.1993 255.631 33.8701 255.765 33.5485C256.131 32.6696 256.629 31.9077 257.259 31.2629C257.888 30.6185 258.642 30.113 259.522 29.7455C260.399 29.3798 261.307 29.1963 262.245 29.1963H288.467Z" fill="#8FA15D"></path>
    <path d="M295.147 56.4525C294.854 56.9507 294.525 57.3979 294.159 57.7932C293.792 58.1885 293.441 58.5118 293.104 58.7605C292.767 59.01 292.358 59.2218 291.874 59.398C291.391 59.5738 290.974 59.6986 290.622 59.7715C290.271 59.8448 289.802 59.9031 289.216 59.9472C288.63 59.9914 288.169 60.0133 287.833 60.0133C287.496 60.0133 286.991 60.0055 286.317 59.9914L286.297 59.991C285.637 59.9759 285.234 59.2591 285.564 58.6863L302.32 29.6322C302.475 29.3635 302.762 29.1973 303.073 29.1973H310.372C310.683 29.1973 310.969 29.3635 311.125 29.6322L327.882 58.6863C328.212 59.2591 327.809 59.9759 327.148 59.991L327.128 59.9914C326.454 60.0055 325.949 60.0133 325.612 60.0133C325.275 60.0133 324.814 59.9914 324.228 59.9472C323.643 59.9031 323.174 59.8448 322.823 59.7715C322.471 59.6986 322.054 59.5738 321.571 59.398C321.088 59.2218 320.677 59.01 320.341 58.7605C320.004 58.5118 319.652 58.1885 319.287 57.7932C318.92 57.3979 318.59 56.9507 318.298 56.4525L307.455 37.6691C307.12 37.0889 306.282 37.0898 305.949 37.6704L295.147 56.4525Z" fill="#8FA15D"></path>
    <path d="M125.606 57.4912C124.987 58.5601 124.165 59.3898 123.14 59.9805C122.113 60.5707 120.982 60.8662 119.746 60.8662H117.005C116.424 60.8662 116.061 60.2373 116.351 59.7345L132.513 31.7115C132.648 31.4779 132.897 31.334 133.166 31.334H140.264C140.533 31.334 140.782 31.4774 140.917 31.7106L144.554 38.0042C144.845 38.5079 145.572 38.5061 145.862 38.0015L149.462 31.7133C149.596 31.4788 149.846 31.334 150.116 31.334H157.212C157.481 31.334 157.73 31.4779 157.865 31.7115L174.027 59.7345C174.317 60.2373 173.954 60.8662 173.374 60.8662H170.632C169.396 60.8662 168.264 60.5707 167.238 59.9805C166.212 59.3898 165.39 58.5601 164.772 57.4912L154.337 39.3449C154.047 38.8412 153.32 38.8403 153.03 39.344L142.554 57.4912C141.936 58.5601 141.121 59.3898 140.108 59.9805C139.097 60.5707 137.959 60.8662 136.693 60.8662H133.952C133.371 60.8662 133.009 60.2378 133.299 59.7345L140.988 46.3927C141.122 46.1591 141.122 45.8722 140.988 45.6386L137.388 39.385C137.098 38.8823 136.373 38.8813 136.081 39.3841L125.606 57.4912Z" fill="#114456"></path>
    <path d="M0.953723 60.8629C0.476427 60.9043 0.0679988 60.4758 0.0657586 59.9439L0 44.6939C0 39.4686 1.88254 35.0481 5.64943 31.4304C8.5115 28.8856 11.7509 27.6123 15.3662 27.6123H35.7355C36.2375 27.6123 36.6275 28.1019 36.5597 28.6547C36.3149 30.6348 35.3005 34.7862 31.0868 34.7862C31.0868 34.7862 20.7086 34.7093 19.4527 34.7093L19.0767 34.6965C15.4697 34.7106 13.2992 35.0121 12.5642 35.6005C10.2141 36.7731 8.48129 38.5984 7.36669 41.0767C6.73385 42.35 6.41738 44.7777 6.41738 48.3617V55.5219C6.41738 55.5219 6.38807 60.3861 0.953723 60.8629Z" fill="#114456"></path>
    <path d="M10.4678 47.48V47.3402C10.4678 45.29 10.9833 43.5362 12.0152 42.0758C13.0467 40.6162 14.2871 39.8857 15.7363 39.8857H35.8556V40.0256C35.8556 42.0758 35.3395 43.8309 34.3079 45.29C33.2757 46.7504 32.0247 47.48 30.5538 47.48H10.4678Z" fill="#114456"></path>
    <path d="M46.2569 35.5151C43.8786 35.6463 42.3764 35.3813 40.9697 33.5788C39.9426 32.2631 39.5631 30.3983 39.5995 28.9005C39.6118 28.3727 39.9312 27.9209 40.4063 27.9209H66.4158C68.2038 27.9209 69.8526 28.41 71.3617 29.3882C72.8698 30.3669 74.0717 31.703 74.9655 33.3953C75.8593 35.088 76.3075 36.9283 76.3075 38.9161C76.3075 41.9604 75.3359 44.5612 73.3936 46.7198C71.4518 48.8793 69.1254 49.9577 66.4158 49.9577H47.2335C46.7871 49.9577 46.4248 50.3603 46.4248 50.8567V53.079C46.5017 56.5524 46.1295 57.613 44.8024 59.0571C43.6047 60.3604 42.1106 60.794 40.4214 60.8659C39.9562 60.8859 39.579 60.3135 39.579 59.9806L39.5508 44.1705C39.5508 43.1472 40.2976 42.3174 41.2182 42.3174H66.4158C67.3656 42.3174 68.106 41.9677 68.6371 41.2687C69.1677 40.5701 69.4335 39.7941 69.4335 38.9393C69.4335 38.0859 69.1677 37.3012 68.6371 36.5862C68.106 35.8722 67.3656 35.5151 66.4158 35.5151H46.2569Z" fill="#114456"></path>
    <path d="M89.1487 13.4135C90.8403 13.0054 92.5987 12.7613 94.4067 12.6999C94.7085 12.6894 95.0093 12.6844 95.3087 12.6844C108.96 12.6839 120.312 23.2565 121.304 36.8666C121.318 37.0628 121.489 37.2104 121.685 37.1963C121.881 37.1817 122.029 37.0109 122.014 36.8151C120.994 22.8316 109.334 11.9721 95.3087 11.9717C95.0011 11.9717 94.6925 11.9767 94.3826 11.9876C92.5263 12.0505 90.7201 12.3014 88.9817 12.7208C88.7905 12.7673 88.6727 12.9594 88.7191 13.1507C88.7651 13.342 88.9576 13.4599 89.1487 13.4135Z" fill="#8FA15D"></path>
    <path d="M113.826 9.94195C114.61 10.702 115.872 10.6929 116.646 9.92191C117.419 9.15092 117.411 7.90996 116.626 7.15034C115.843 6.39028 114.58 6.39893 113.807 7.16992C113.034 7.94091 113.042 9.18235 113.826 9.94195Z" fill="#114456"></path>
    <path d="M122.949 18.7859C123.733 19.5455 124.995 19.5369 125.769 18.7659C126.542 17.9949 126.534 16.7539 125.749 15.9939C124.965 15.2338 123.703 15.2429 122.93 16.0139C122.157 16.7849 122.165 18.0259 122.949 18.7859Z" fill="#114456"></path>
    <path d="M128.976 4.29768C129.98 5.27042 131.596 5.25903 132.587 4.27172C133.577 3.28442 133.566 1.69553 132.563 0.72233C131.559 -0.250859 129.942 -0.239019 128.951 0.747837C127.961 1.73516 127.972 3.3245 128.976 4.29768Z" fill="#114456"></path>
    <path d="M112.353 10.8392L99.1829 23.9694C99.0436 24.1082 99.0431 24.3337 99.1819 24.473C99.3207 24.6124 99.546 24.6128 99.6853 24.4739L112.856 11.3443C112.996 11.2054 112.996 10.9795 112.857 10.8402C112.718 10.7008 112.493 10.7003 112.353 10.8392Z" fill="#8FA15D"></path>
    <path d="M121.587 19.7904L108.416 32.9205C108.277 33.0594 108.277 33.2848 108.415 33.4242C108.554 33.5635 108.78 33.5644 108.919 33.4256L122.09 20.2955C122.229 20.1566 122.229 19.9307 122.091 19.7913C121.952 19.652 121.727 19.6515 121.587 19.7904Z" fill="#8FA15D"></path>
    <path d="M127.388 5.23746L111.386 20.7716C111.244 20.9087 111.241 21.1341 111.378 21.2753C111.515 21.4165 111.74 21.4201 111.881 21.283L127.884 5.74887C128.025 5.61179 128.028 5.38591 127.891 5.24474C127.754 5.10356 127.529 5.10039 127.388 5.23746Z" fill="#8FA15D"></path>
    <path d="M128.766 4.01618C128.826 4.08905 128.89 4.15871 128.959 4.22612C129.148 4.40828 129.358 4.55582 129.582 4.66785L129.741 4.34908C129.549 4.253 129.369 4.12685 129.207 3.97019C129.148 3.91235 129.092 3.85224 129.041 3.78985L128.766 4.01618ZM128.216 2.60809C128.23 2.86219 128.285 3.11495 128.379 3.35585L128.71 3.22606C128.63 3.02068 128.584 2.80482 128.571 2.58758L128.216 2.60809ZM128.602 1.1458C128.46 1.3653 128.357 1.6021 128.292 1.84621L128.637 1.93728C128.692 1.72871 128.78 1.52698 128.901 1.33934L128.602 1.1458ZM129.766 0.184898C129.533 0.27917 129.311 0.409418 129.11 0.575632L129.337 0.850231C129.509 0.707686 129.699 0.596112 129.899 0.515062L129.766 0.184898ZM131.269 0.0596667C131.088 0.0195878 130.904 0 130.72 0C130.649 0 130.579 0.00274229 130.508 0.00866217L130.538 0.363876C130.598 0.358871 130.659 0.356139 130.72 0.356139C130.879 0.356139 131.037 0.373442 131.193 0.407601L131.269 0.0596667ZM132.578 0.811077C132.546 0.776472 132.513 0.742313 132.478 0.709068C132.326 0.561071 132.158 0.436286 131.981 0.334277L131.804 0.643493C131.956 0.730941 132.1 0.837945 132.231 0.965016L132.316 1.05244L132.578 0.811077ZM133.209 2.18412C133.18 1.93182 133.111 1.68271 133.002 1.44728L132.679 1.59619C132.772 1.79749 132.83 2.00969 132.855 2.22556L133.209 2.18412ZM132.91 3.66645C133.038 3.43965 133.128 3.19739 133.178 2.94919L132.829 2.8786C132.786 3.09083 132.71 3.29758 132.6 3.49112L132.91 3.66645ZM131.802 4.69292C132.029 4.58589 132.243 4.44336 132.435 4.26528L132.193 4.00389C132.028 4.15645 131.845 4.27896 131.65 4.37049L131.802 4.69292ZM130.308 4.90194C130.444 4.9238 130.581 4.93519 130.718 4.93519C130.836 4.93519 130.954 4.92699 131.071 4.9106L131.022 4.55767C130.921 4.57178 130.819 4.57862 130.718 4.57862C130.6 4.57862 130.482 4.56906 130.366 4.55038L130.308 4.90194Z" fill="#114456"></path>
    <path d="M111.911 20.6667C112.695 21.4268 112.703 22.6677 111.93 23.4387C111.156 24.2097 109.894 24.2184 109.11 23.4588C108.326 22.6987 108.318 21.4577 109.091 20.6868C109.864 19.9158 111.127 19.9067 111.911 20.6667Z" fill="#114456"></path>
    <path d="M0 96.001V123.001H327.908V96.001H0Z" fill="#8FA15D"></path>
    <path d="M17.7033 105.44H14.3581V108.984H17.0411V110.738H14.3581V116.215H12.4619V103.686H17.7033V105.44Z" fill="white"></path>
    <path d="M26.3078 113.405C26.3078 115.374 25.1805 116.394 23.3561 116.394C21.5672 116.394 20.4404 115.374 20.4404 113.405V103.686H22.2649V113.351C22.2649 114.264 22.6764 114.604 23.338 114.604C24.0002 114.604 24.4117 114.264 24.4117 113.351V103.686H26.3078L26.3078 113.405Z" fill="white"></path>
    <path d="M34.9483 105.476H32.9268V116.215H31.0307V105.476H29.0098V103.686H34.9483V105.476Z" fill="white"></path>
    <path d="M43.5168 113.405C43.5168 115.374 42.3895 116.394 40.5651 116.394C38.7762 116.394 37.6494 115.374 37.6494 113.405V103.686H39.4739V113.351C39.4739 114.264 39.8854 114.604 40.547 114.604C41.2091 114.604 41.6206 114.264 41.6206 113.351V103.686H43.5168L43.5168 113.405Z" fill="white"></path>
    <path d="M51.3165 116.215L49.8138 110.917H48.9372V116.215H47.041V103.686H49.7777C51.8172 103.686 52.9259 104.795 52.9259 106.853V107.749C52.9259 109.073 52.4613 110.004 51.5847 110.505L53.3194 116.215L51.3165 116.215ZM48.9372 105.44V109.163H49.7066C50.6188 109.163 51.0298 108.68 51.0298 107.623V106.979C51.0298 105.923 50.6188 105.44 49.7066 105.44H48.9372Z" fill="white"></path>
    <path d="M61.6206 105.44H58.1862V108.984H60.959V110.738H58.1862V114.461H61.6206V116.215H56.29V103.686H61.6206V105.44Z" fill="white"></path>
    <path d="M74.8574 106.317V106.639L73.0329 106.818V106.353C73.0329 105.637 72.6931 105.261 72.0671 105.261C71.4411 105.261 71.1012 105.637 71.1012 106.353V106.514C71.1012 107.248 71.423 107.875 72.6931 108.948C74.4284 110.416 75.0719 111.454 75.0719 112.958V113.584C75.0719 115.375 74.0169 116.395 72.1388 116.395C70.2601 116.395 69.2051 115.375 69.2051 113.584V112.743L71.0295 112.564V113.459C71.0295 114.247 71.3874 114.641 72.1027 114.641C72.8184 114.641 73.1758 114.247 73.1758 113.459V113.047C73.1758 112.26 72.8004 111.633 71.5303 110.56C69.7955 109.091 69.2051 108.053 69.2051 106.585V106.317C69.2051 104.527 70.2246 103.507 72.031 103.507C73.8379 103.507 74.8574 104.527 74.8574 106.317Z" fill="white"></path>
    <path d="M81.7808 108.662L84.4103 116.215H82.3888L80.5288 110.738L79.7057 112.349V116.215H77.8096V103.686H79.7057V108.912H79.7413L82.3707 103.686H84.3566L81.7808 108.662Z" fill="white"></path>
    <path d="M89.026 116.215H87.1299V103.686H89.026V116.215Z" fill="white"></path>
    <path d="M94.5534 114.425H97.7196V116.215H92.6572V103.686H94.5534V114.425Z" fill="white"></path>
    <path d="M102.424 114.425H105.591V116.215H100.528V103.686H102.424V114.425Z" fill="white"></path>
    <path d="M113.443 106.317V106.639L111.619 106.818V106.353C111.619 105.637 111.279 105.261 110.653 105.261C110.027 105.261 109.687 105.637 109.687 106.353V106.514C109.687 107.248 110.009 107.875 111.279 108.948C113.014 110.416 113.658 111.454 113.658 112.958V113.584C113.658 115.375 112.603 116.395 110.725 116.395C108.846 116.395 107.791 115.375 107.791 113.584V112.743L109.615 112.564V113.459C109.615 114.247 109.973 114.641 110.689 114.641C111.404 114.641 111.762 114.247 111.762 113.459V113.047C111.762 112.26 111.386 111.633 110.116 110.56C108.381 109.091 107.791 108.053 107.791 106.585V106.317C107.791 104.527 108.811 103.507 110.617 103.507C112.424 103.507 113.443 104.527 113.443 106.317Z" fill="white"></path>
    <path d="M126.985 109.951C126.985 111.49 125.84 112.635 124.302 112.635C122.764 112.635 121.619 111.49 121.619 109.951C121.619 108.411 122.764 107.266 124.302 107.266C125.84 107.266 126.985 108.411 126.985 109.951Z" fill="white"></path>
    <path d="M141.17 105.44H137.736V108.984H140.509V110.738H137.736V114.461H141.17V116.215H135.84V103.686H141.17V105.44Z" fill="white"></path>
    <path d="M152.405 116.215H150.509V107.516H150.473L148.899 114.425H147.772L146.198 107.516H146.162V116.215H144.373V103.686H146.86L148.344 110.416H148.38L149.847 103.686H152.405V116.215Z" fill="white"></path>
    <path d="M161.921 106.853V107.856C161.921 109.915 160.812 111.025 158.773 111.025H157.932V116.215H156.036V103.686H158.773C160.812 103.686 161.921 104.795 161.921 106.853ZM157.932 105.44V109.27H158.702C159.614 109.27 160.025 108.787 160.025 107.731V106.979C160.025 105.923 159.614 105.44 158.702 105.44H157.932Z" fill="white"></path>
    <path d="M166.805 114.425H169.972V116.215H164.909V103.686H166.805V114.425Z" fill="white"></path>
    <path d="M178.275 106.675V113.226C178.275 115.196 177.112 116.395 175.216 116.395C173.32 116.395 172.157 115.196 172.157 113.226V106.675C172.157 104.706 173.32 103.507 175.216 103.507C177.112 103.507 178.275 104.706 178.275 106.675ZM174.053 106.693V113.208C174.053 114.139 174.464 114.641 175.216 114.641C175.967 114.641 176.379 114.139 176.379 113.208V106.693C176.379 105.762 175.967 105.261 175.216 105.261C174.464 105.261 174.053 105.762 174.053 106.693Z" fill="white"></path>
    <path d="M184.84 110.559V116.215H182.944V110.541L180.314 103.686H182.318L183.91 108.124H183.946L185.466 103.686H187.434L184.84 110.559Z" fill="white"></path>
    <path d="M195.324 116.215H193.392L192.98 113.369H190.888L190.476 116.215H188.58L190.744 103.686H193.159L195.324 116.215ZM191.907 106.37L191.138 111.651H192.73L191.961 106.37H191.907Z" fill="white"></path>
    <path d="M203.962 106.853V107.086C203.962 108.483 203.551 109.306 202.549 109.646V109.682C203.73 110.04 204.231 110.971 204.231 112.618V113.047C204.231 115.105 203.122 116.215 201.082 116.215H198.292V103.686H200.939C202.907 103.686 203.962 104.795 203.962 106.853ZM200.188 105.44V108.858H200.779C201.691 108.858 202.066 108.393 202.066 107.337V106.925C202.066 105.905 201.691 105.44 200.868 105.44H200.188ZM200.188 110.613V114.461H201.011C201.923 114.461 202.335 113.978 202.335 112.922V112.224C202.335 111.114 201.923 110.613 200.921 110.613H200.188Z" fill="white"></path>
    <path d="M209.258 116.215H207.362V103.686H209.258V116.215Z" fill="white"></path>
    <path d="M214.804 114.425H217.971V116.215H212.908V103.686H214.804V114.425Z" fill="white"></path>
    <path d="M222.693 116.215H220.797V103.686H222.693V116.215Z" fill="white"></path>
    <path d="M231.459 105.476H229.438V116.215H227.541V105.476H225.521V103.686H231.459V105.476Z" fill="white"></path>
    <path d="M237.612 110.559V116.215H235.716V110.541L233.086 103.686H235.089L236.682 108.124H236.717L238.238 103.686H240.205L237.612 110.559Z" fill="white"></path>
    <path d="M252.89 109.951C252.89 111.49 251.745 112.635 250.207 112.635C248.668 112.635 247.523 111.49 247.523 109.951C247.523 108.411 248.668 107.266 250.207 107.266C251.745 107.266 252.89 108.411 252.89 109.951Z" fill="white"></path>
    <path d="M267.523 106.514V107.373L265.698 107.463V106.711C265.698 105.708 265.322 105.261 264.589 105.261C263.856 105.261 263.48 105.708 263.48 106.532V113.37C263.48 114.193 263.837 114.641 264.571 114.641C265.305 114.641 265.662 114.193 265.662 113.191V111.043H264.589V109.288H267.523V113.387C267.523 115.285 266.431 116.395 264.535 116.395C262.657 116.395 261.584 115.285 261.584 113.387V106.514C261.584 104.616 262.657 103.507 264.535 103.507C266.431 103.507 267.523 104.616 267.523 106.514Z" fill="white"></path>
    <path d="M275.197 116.215L273.695 110.917H272.818V116.215H270.922V103.686H273.659C275.698 103.686 276.807 104.795 276.807 106.853V107.749C276.807 109.073 276.342 110.004 275.466 110.505L277.2 116.215L275.197 116.215ZM272.818 105.44V109.163H273.587C274.5 109.163 274.911 108.68 274.911 107.623V106.979C274.911 105.923 274.5 105.44 273.587 105.44H272.818Z" fill="white"></path>
    <path d="M286.109 106.675V113.226C286.109 115.196 284.946 116.395 283.05 116.395C281.154 116.395 279.991 115.196 279.991 113.226V106.675C279.991 104.706 281.154 103.507 283.05 103.507C284.946 103.507 286.109 104.706 286.109 106.675ZM281.887 106.693V113.208C281.887 114.139 282.298 114.641 283.05 114.641C283.801 114.641 284.213 114.139 284.213 113.208V106.693C284.213 105.762 283.801 105.261 283.05 105.261C282.298 105.261 281.887 105.762 281.887 106.693Z" fill="white"></path>
    <path d="M296.877 116.215H294.946L293.873 108.751H293.836L292.746 116.215H290.814L288.882 103.686H290.832L291.923 111.991H291.958L293.032 103.686H294.713L295.786 111.991H295.822L296.914 103.686H298.81L296.877 116.215Z" fill="white"></path>
    <path d="M306.896 105.476H304.874V116.215H302.978V105.476H300.957V103.686H306.896V105.476Z" fill="white"></path>
    <path d="M315.768 116.215H313.872V110.756H311.618V116.215H309.722V103.686H311.618V108.966H313.872V103.686H315.768V116.215Z" fill="white"></path>
  </g>
  <defs>
    <clipPath id="clip0_1962_4490">
      <rect width="328" height="123" fill="white"></rect>
    </clipPath>
  </defs>
</svg>
